# xmcd
#
# Track frame offsets: 
#        150
#        15397
#        32930
#        57942
#        75693
#
# Disc length: 1297 seconds
#
# Revision: 0
# Processed by: cddbd v1.5.2PL0 Copyright (c) Steve Scherf et al.
# Submitted via: ExactAudioCopy v0.99pb3
#
DISCID=33050f05
DTITLE=Grammatrain - Kneeling Between Shields
DYEAR=2009
DGENRE=Hard Rock
TTITLE0=Damaged
TTITLE1=Forever
TTITLE2=All
TTITLE3=Enemy
TTITLE4=Damaged (acoustic version)
EXTD=
EXTT0=
EXTT1=
EXTT2=
EXTT3=
EXTT4=
PLAYORDER=
